<?xml version="1.0" encoding="utf-8"?>
<!-- Generator: Adobe Illustrator 23.0.3, SVG Export Plug-In . SVG Version: 6.00 Build 0)  -->
<svg version="1.1" id="Layer_1" xmlns="http://www.w3.org/2000/svg" xmlns:xlink="http://www.w3.org/1999/xlink" x="0px" y="0px"
	 viewBox="0 0 1400 980" enable-background="new 0 0 1400 980" xml:space="preserve">
<g>
	<g>
		<g>
			<rect id="XMLID_13_" fill="#7E6B71" width="1400" height="980"/>
		</g>
	</g>
	<polygon fill="#5C4A56" points="1043.6,264.9 875.4,264.9 875.4,336.5 746.2,336.5 746.2,686.8 628.7,686.8 628.7,474.5 
		455.1,474.5 455.1,706.1 374.1,706.1 374.1,968.1 455.1,968.1 494,968.1 628.7,968.1 628.7,960.2 746.2,960.2 746.2,980 922.6,980 
		922.6,966.8 1043.6,966.8 	"/>
	<g>
		<polygon fill="#7895A4" points="354.6,686.1 359.2,687.6 415.4,561.3 410.8,559.8 		"/>
		<polygon fill="#7895A4" points="531.1,301.3 526.5,299.8 442.7,488.2 447.3,489.7 		"/>
		<polygon fill="#7895A4" points="646.8,41.4 642.2,39.8 558.4,228.2 563,229.7 		"/>
		<polygon fill="#7895A4" points="631.5,730.7 633.3,731.3 689.5,605 687.7,604.4 		"/>
		<polygon fill="#7895A4" points="803.4,344.4 719.6,532.8 721.4,533.4 805.3,345 		"/>
		<polygon fill="#7895A4" points="921,85 919.1,84.4 835.3,272.8 837.1,273.4 		"/>
		<polygon fill="#7895A4" points="1117.7,35 1033.8,223.4 1038.4,224.9 1122.2,36.5 		"/>
		<polygon fill="#7895A4" points="716.3,936.7 720.9,938.2 775.1,816.4 770.5,814.9 		"/>
		<polygon fill="#7895A4" points="918.1,483.4 922.7,484.9 1006.5,296.5 1002,295 		"/>
		<polygon fill="#7895A4" points="802.4,743.3 807,744.8 890.8,556.5 886.2,554.9 		"/>
		<polygon fill="#7895A4" points="743.6,766.4 827.4,578.1 824.7,577.1 740.8,765.5 		"/>
		<polygon fill="#7895A4" points="685.3,890.2 688,891.2 711.7,838 708.9,837.1 		"/>
		<polygon fill="#7895A4" points="1058.8,58.1 1056.1,57.2 972.2,245.6 975,246.5 		"/>
		<polygon fill="#7895A4" points="859.3,506.5 943.1,318.1 940.4,317.2 856.5,505.6 		"/>
		<polygon fill="#7895A4" points="775.3,61.9 753.3,111.3 757.9,112.8 779.9,63.4 		"/>
		<polygon fill="#7895A4" points="742.4,147.7 737.8,146.2 696,239.9 700.6,241.5 		"/>
		<polygon fill="#7895A4" points="466.7,754.5 471.3,756 513.1,662.2 508.5,660.7 		"/>
		<polygon fill="#7895A4" points="581.4,497.2 585.9,498.7 627.7,404.9 623.2,403.4 		"/>
		<polygon fill="#7895A4" points="638.7,368.6 643.3,370.1 685,276.3 680.5,274.8 		"/>
		<polygon fill="#7895A4" points="409.4,883.1 414,884.6 455.8,790.8 451.2,789.3 		"/>
		<polygon fill="#7895A4" points="524,625.8 528.6,627.3 570.4,533.6 565.8,532 		"/>
		<polygon fill="#7895A4" points="371.9,967.4 376.5,968.9 398.5,919.4 393.9,917.9 		"/>
	</g>
	<path fill="#0A3542" d="M0,0v980h1400V0H0z M698.7,969.5H420.6V650.6h278.1V969.5z M698.7,622.4H420.6V59h278.1V622.4z
		 M1008.7,969.5H730.6V650.6h278.1V969.5z M1008.7,622.4H730.6V59h278.1V622.4z"/>
	<g>
		<g>
			<path fill="#0A3542" d="M1193.4,453.7c0,0-272.5,58.9-296.8,90.1c-24.3,31.2-36.8,76.3-7.6,114.5c29.1,38.2,220,39.8,220,39.8
				L1193.4,453.7z"/>
			<path fill="#FEC77C" d="M1175.8,196.3c0,0-33.5,11.3-42.3,70.1c0,0,3.4,6.2,3.4,10.7c0,4.4-39.6,32.5-39.6,32.5l2.6,3.1
				c0,0,25.5,1.6,27.6,7c2.1,5.5-3.1,45.5,7.5,55.9c10.7,10.4,31.2,1,37.5,6.9c6.2,5.9-3.9,127.9-3.9,127.9s10.7-10.9,23.2-4.7
				c12.4,6.2,45.2-35.4,45.2-35.4l-11.6-155.6c0,0,58-26.5,52.2-71.3C1271.9,198.8,1197.8,189.2,1175.8,196.3z"/>
			<path fill="#7895A4" d="M1277.6,243.5c-4.5-34.9-50.5-48.4-81-49.3c-17,28.6-39.4,67.9-37.8,73.9c2.6,9.5,14,22,13.5,42.8
				c-0.4,16-21.2,49.2-37.6,64.3c0.1,0.1,0.2,0.3,0.4,0.4c10.7,10.4,31.2,1,37.5,6.9c2.1,2,2.3,16.7,1.8,35.5l54-64.9l-2.9-38.3
				C1225.4,314.8,1283.4,288.3,1277.6,243.5z"/>
			<path fill="#0A3542" d="M962.6,872.3c0,0-255.7-227.6-316.6-171.5c-60.9,56.1,0,272.2,0,272.2h348.4L962.6,872.3z"/>
			<path fill="#FEC77C" d="M926.5,590.1c0,0-36.7,10.9-36.7,41.6l82,75.4l-4.7,66.3l43.5,3.7l-17.6-73L926.5,590.1z"/>
			<path fill="#0A3542" d="M1244.6,434.2l-116.2,90.5c0,0-62.1,348.5-160.6,395.6c-98.5,47.1,42.2,34.9,42.2,34.9l324.5-30.1
				L1244.6,434.2z"/>
			<polygon fill="#855914" points="1134.6,264.9 1137.1,271.4 1179.7,270 1174.5,264.9 			"/>
			<polygon fill="#0A3542" points="1150.1,272.3 1164.2,273.8 1150.6,275.3 			"/>
			<path fill="#855914" d="M1302.7,230.9c-0.7-15.6-12.3-14.6-12.3-14.6s7.8-21.9,0-37.5c-7.8-15.6-161.2,2.1-161.2,2.1
				s17.5-16.7-14.7-38c-32.3-21.3-92.6,46.8-53.6,79.1c36,29.7,49,1.1,50.8-3.5c-1.1,3.2-5.2,18.2,14.8,19.2
				c22.4,1,33.8-22.9,33.8-22.9c70.3-16.7,45.3,2.6,32.4,17.2c-6.6,7.4-0.6,18.6,6.8,27.7l-6.8,46.6h8.2l-1.6-7.6c0,0,8.5-2.1,8.9-8
				c0.3-5.9,2.1-15.3,2.1-15.3l15.1,4.2c0,0-0.2,26.7-15.1,26.7l15.2,8.6c0,0,33.2-14.8,33.5-23.9
				C1266.9,282.8,1303.3,244.8,1302.7,230.9z"/>
			<path fill="#7895A4" d="M1010.5,777.1l-17.6-73l-66.4-114c0,0-13.1,3.9-23.7,13.6l81.3,107l-9.6,63.3L1010.5,777.1z"/>
			<path fill="#674219" d="M1142.1,234c12-6.5,18.2-19.3,18.2-19.3c70.3-16.7,45.3,2.6,32.4,17.2c-6.6,7.4-0.6,18.6,6.8,27.7
				l-6.8,46.6h8.2l-1.6-7.6c0,0,8.5-2.1,8.9-8c0.3-5.9,2.1-15.3,2.1-15.3l15.1,4.2c0,0-0.2,26.7-15.1,26.7l15.2,8.6
				c0,0,33.2-14.8,33.5-23.9c8-8.2,44.4-46.2,43.8-60.1c-0.7-15.6-12.3-14.6-12.3-14.6s5.3-15,2.8-29c-14.1-4.6-29.8-7.2-46.3-7.2
				C1198,180.1,1156.5,202.7,1142.1,234z"/>
		</g>
		<g>
			<path fill="#FEC77C" d="M1187.7,355.4c-11.5,6-18.5,49.1-18.5,49.1s5.6,13.1,3.2,23.5c-4.4,19.3-28.6,25.6-28.6,25.6l1.4,3.1
				c0,0,22.2,1.2,23.6,5.1c1.4,3.9-6.1,6.1-6.1,6.1l2.5,5.3l-3.2,3.6l17.8,36c0,0,26-16.7,36.7-7.1c10.7,9.6-19.4,140.3-19.4,140.3
				l57.1-39.5l1.8-225.8C1256.1,380.7,1205,346.3,1187.7,355.4z"/>
			<path fill="#7895A4" d="M1255.3,471.8l0-3.9l-27.2-103.3c-7.7-3.8-16-7.4-23.4-9.3l-15.8,52.4l7,18.6c0,0-3.4,11-1.1,25.8
				c2.3,14.9,4.9,31.4-15,60.6c0,0,26-16.7,36.7-7.1c3.5,3.2,3.1,17.4,0.9,35L1255.3,471.8z"/>
			<polygon fill="#0A3542" points="1177.4,425.9 1192.5,424.3 1177.4,428.4 			"/>
			<path fill="#B25538" d="M1170.9,401.8l2.4,4.3c0,0,10-1.8,15.7,1.5C1189,407.7,1184.8,401.7,1170.9,401.8z"/>
			<path fill="#7895A4" d="M1001.3,688.9c0,0,64.8-6.4,83.9,18.2c19.1,24.6-5.2,75.8-5.2,75.8s94.4-99.6,101-96.2
				c6.6,3.4-5,143.1-5,143.1l-48.3,58.4l-132.8,13L1001.3,688.9z"/>
			<polygon fill="#FEC77C" points="1046.2,523.1 1094.7,483.7 1121.5,479.3 1134.6,486.2 1132.7,487.7 1121.1,482.3 1109.9,485.6 
				1113.7,496.1 1111.5,502.1 1127.1,490 1134.3,488.4 1112.5,510.8 1055.4,529.2 1065.4,714.4 1025.8,698.6 			"/>
			<path fill="#7895A4" d="M1055.4,529.2l57.1-18.5l21.8-22.4l-7.2,1.7l-15.6,12.1l2.2-6l-3.8-10.5l11.2-3.3l11.6,5.4l1.9-1.6
				l-13.2-6.9l0,0l-21,5.8l2.3,9.4l-6-3.1l-5.4,6l6.6,8.9c0,0-7.4-7.4-8.9-1.4c-1.4,6,2,5.7,2,5.7s-33.2,18-42.9,14.3
				c0,0-17.2,165.5,15.7,158.8L1055.4,529.2z"/>
			<path fill="#DAD7C5" d="M1268.2,568l-91.9,84c0,0-75.7,271.3-154.3,314.1l199.6,6.9l63.3-344.5L1268.2,568z"/>
			<path fill="#B25538" d="M1182.3,336.5c0,0,11,81.6,38.1,95.8c0,0,11-15.3,16.4-3.9c5.3,11.4-14.6,24.6-14.6,24.6
				s-3.9,17.8,5.7,28.8c9.6,11,2.5,70.2,0.7,88c-1.8,17.8,9.4,32.8,11.3,42c1.9,9.3-40.8-17.1-32.6,111.1l77.9-83.7l13.7-266.6
				L1182.3,336.5z"/>
			<path fill="#94402A" d="M1256.3,359.4c-15.1,6-30.6,16.6-39.9,34.8c10.5,18.1,32.8,30.5,32.8,30.5c-18-4.5-28.8-15.1-35.3-25.2
				c-2.6,6.2-4.4,13.1-5.5,21c3.6,5.3,7.6,9.4,12,11.7c0,0,11-15.3,16.4-3.9c5.3,11.4-14.6,24.6-14.6,24.6s-3.9,17.8,5.7,28.8
				c7.7,8.9,4.7,48.6,2.2,73.2c4.3,13.4,6.2,13,6.2,13v-73.9l7.3,87.5c0,0,4.9,42.9,1.4,47.9c-3.5,5-42.8,43.6-22.1,76.7l62.3-66.8
				l13.7-266.6L1256.3,359.4z"/>
			<path fill="#C9AC68" d="M1170.9,459c0,0-3.8,33.4,18.1,30.9C1189,489.9,1172.6,492.5,1170.9,459z"/>
			<path fill="#B25538" d="M1073.5,743.8l-8.6,61c0,0,8.8,75.1,5.5,82.9c-3.3,7.9-9.1,23.6-9.1,23.6l6.1,40.8l-144.1-5.7l10-58.6
				c0,0-24.3-36.5-10-52.2c14.3-15.7-1.4-36.5-0.7-47.2c0.7-10.7,7.1-34.3,7.1-34.3l3.6,8.2l6.1-5l5,4.6l6.1-3.6l7.1,6.4l9.3-3.2
				l6.4,3.9l7.1-4.6l8.2,3.9l13.2-11.4l10.4,3.9l7.1-5.7l6.4,1.8l5.7-6.1l6.1,2.1l10.7-5.6l4.3,5.6l9.3-3.9l3.6,3.6L1073.5,743.8z"
				/>
			<g>
				<path fill="#933B24" d="M929.4,820.6l138.8,15.3c-1.6-16.8-3.3-31.1-3.3-31.1l2.9-20.8l-145.2,4.4
					C922.2,795.9,929.8,808.4,929.4,820.6z"/>
				<path fill="#933B24" d="M1063.2,924l-1.9-12.6c0,0,5.7-15.7,9.1-23.6c1-2.4,0.9-10.9,0.3-21.6l-149.6-27.4
					c-9,17,12.3,48.9,12.3,48.9l-1.7,9.7L1063.2,924z"/>
			</g>
			<ellipse fill="#C7B570" cx="995.6" cy="863.1" rx="55.8" ry="54"/>
			<g>
				<path fill="#B6A365" d="M939.8,863.1c0,15.6,6.9,29.7,17.9,39.6L1014,914c21.7-7.4,37.4-27.4,37.4-51c0-0.1,0-0.3,0-0.4
					L943.8,843C941.3,849.2,939.8,856,939.8,863.1z"/>
				<path fill="#B6A365" d="M957.5,823.7l84.4,9.3c-10-14.4-27-23.9-46.3-23.9C980.9,809.1,967.5,814.6,957.5,823.7z"/>
			</g>
			<polygon fill="#7895A4" points="1206.4,906.4 1064.8,884.9 1032.6,829.9 1006.8,829.9 1006.3,833 1028.2,836.5 1038.2,856 
				1004.2,844.2 971.7,850.8 974.9,856.9 995.5,854.2 983.5,859.6 986,867.1 1011.4,863.1 1029.6,872.8 1009.8,868.1 990.8,873.5 
				993.5,876.9 1009.4,874.9 1057.3,898.5 1206.4,937.1 			"/>
			<path fill="#DAD7C5" d="M1062.1,745.5l-9.3,3.9l-4.3-5.6l-10.7,5.6l-6.1-2.1l-5.7,6.1l-6.4-1.8l-7.1,5.7l-10.4-3.9l-13.2,11.4
				l-8.2-3.9l-7.1,4.6l-6.4-3.9l-9.3,3.2l-7.1-6.4l-6.1,3.6l-5-4.6l-6.1,5l-3.6-8.2c0,0-1.7,6.1-3.4,13.4
				c25.6,4.3,62.2,9.2,75.6,5.2c15.5-4.7,51.3-13.1,69.9-17.4l1.6-11.5l-7.9,5.2L1062.1,745.5z"/>
			<path fill="#B07E09" d="M1264.2,741.1c-74.6,51.8-57.8,231.4-57.8,231.4H1380V428.4C1185.6,385.1,1264.2,741.1,1264.2,741.1z"/>
			<g>
				<path fill="#FEC77C" d="M1141.5,486.5c-5,0.5-9.6,0.6-9.6,0.6C1134,489.4,1137.7,488.5,1141.5,486.5z"/>
				<path fill="#FEC77C" d="M1155.3,475.9c0,0-7.1,7-13.8,10.5c5-0.5,10.3-1.5,11.7-3.2C1156.2,480,1155.3,475.9,1155.3,475.9z"/>
			</g>
			<path fill="#7895A4" d="M1080.2,968.1c0,0-316.6-130-328.6-105c-12,24.9,0,105,0,105H1080.2z"/>
			<path fill="#7895A4" d="M1284.2,453.5c-10.1,65.9-8,146.8,36.8,215.5c0,0-60.7,207.2-34.4,303.5h93.4V428.4
				C1334.8,418.3,1304.3,429.9,1284.2,453.5z"/>
		</g>
		<polygon fill="#FEC77C" points="1153.4,496.5 1153.4,499.9 1157,498.2 		"/>
		<polygon fill="#FEC77C" points="1149.5,467 1148.5,469 1153.4,467 		"/>
		<polygon fill="#FEC77C" points="1137.6,502 1141.5,501.2 1139.6,503.2 		"/>
		<polygon fill="#FEC77C" points="1037.1,740.6 1041.9,736.8 1041.9,733 		"/>
		<polygon fill="#FEC77C" points="958.4,740.6 958.4,745.1 964.2,746.2 		"/>
		<polygon fill="#FEC77C" points="960.6,731.9 956.1,732.7 956.2,738.6 		"/>
		<polygon fill="#FEC77C" points="947.1,746.1 948,753.5 945,748 		"/>
		<polygon fill="#FEC77C" points="1015.9,743.8 1020,738 1022,738 		"/>
	</g>
	<polygon fill="#FEC77C" points="106.7,72.7 106.7,865.3 227.9,763.9 227.9,174.1 	"/>
	<path display="none" fill="#FFFFFF" d="M0,0v980h1400V0H0z M1371.7,891.9c0,37.8-30.6,68.4-68.4,68.4H96.6
		c-37.8,0-68.4-30.6-68.4-68.4V88.1c0-37.8,30.6-68.4,68.4-68.4h1206.7c37.8,0,68.4,30.6,68.4,68.4V891.9z"/>
</g>
</svg>
